<svg width="22" height="18" viewBox="0 0 22 18" fill="none" xmlns="http://www.w3.org/2000/svg">
<path d="M22 2.17696C21.1904 2.53592 20.3207 2.77857 19.4077 2.88766C20.3395 2.32907 21.0552 1.44456 21.3922 0.390546C20.5062 0.916368 19.5369 1.2868 18.526 1.48581C17.7027 0.608611 16.5296 0.0605469 15.2314 0.0605469C12.7388 0.0605469 10.7179 2.08132 10.7179 4.57392C10.7179 4.92768 10.7578 5.27216 10.8348 5.60255C7.08363 5.41426 3.75782 3.6174 1.5317 0.886618C1.14318 1.55323 0.920559 2.32856 0.920559 3.15575C0.920559 4.72169 1.71737 6.10322 2.92848 6.91262C2.21177 6.89018 1.51082 6.6966 0.884165 6.34805C0.883735 6.36687 0.883735 6.38578 0.883735 6.40481C0.883735 8.59166 2.43958 10.4158 4.50431 10.8306C4.11673 10.936 3.71685 10.9892 3.3152 10.989C3.02434 10.989 2.74161 10.9606 2.46597 10.9079C3.04037 12.701 4.70721 14.0061 6.6823 14.0424C5.13758 15.2531 3.19141 15.9746 1.07671 15.9746C0.712376 15.9746 0.353116 15.9533 0 15.9114C1.99744 17.1921 4.36995 17.9393 6.91884 17.9393C15.2208 17.9393 19.7608 11.0617 19.7608 5.09724C19.7608 4.90156 19.7563 4.70691 19.7477 4.5133C20.6296 3.87697 21.3949 3.08205 22 2.17696Z" fill="white"/>
</svg>
